# xmcd
#
# Track frame offsets:
#	150
#	13646
#	25198
#	36967
#	50571
#	64706
#	77181
#	88864
#	99960
#	113103
#	127896
#	140000
#	149508
#	161978
#	176131
#	188212
#	200710
#	213783
#	227480
#	239348
#	252303
#	265603
#	278917
#	291036
#	304425
#	317005
#
# Disc length: 4405 seconds
#
# Revision: 2
# Processed by: cddbd v1.4PL0 Copyright (c) Steve Scherf et al.
# Submitted via: audiograbber 1.82.00
#
DISCID=8111331a
DTITLE=As good as it gets - Jukebox Blues - CD 1
DYEAR=2000
DGENRE=Blues
TTITLE0=Amos Milburn - Down The Road Apiece
TTITLE1=Joe Turner With Pete Johnson - Low Down Dog
TTITLE2=Champion Jack Dupree - Big Time Mama
TTITLE3=T- Bone Walker - Stormy Monday
TTITLE4=John Lee Hooker - Boogie Chillen
TTITLE5=Sonny Boy Williamson - Shake The Boogie
TTITLE6=Peetie Wheatstraw - Peetie Wheatstraw Stomp
TTITLE7=Big Bill Broonzy - All By Myself
TTITLE8=Tampa Red - Don't You Lie To Me
TTITLE9=Lonnie Johnson - He's A Jelly Roll Baker
TTITLE10=Muddy Waters - I Can't Be Satisfied
TTITLE11=Camille Howard - X- Temperaneous Boogie
TTITLE12=Sunnyland Slim - She Ain't Nowhere
TTITLE13=Lowell Fulson - Three O'clock Blues
TTITLE14=Jazz Gillum With Big Bill Broonzy On Guitar - Key To The Highway
TTITLE15=Joe Liggins And The Honeydrippers - Drippers Boogie
TTITLE16=Julia Lee - Snatch It And Grab It
TTITLE17=Pee Wee Crayton - Blues After Hours
TTITLE18=Wynonie Harris - Wynonie's Boogie
TTITLE19=Big Maceo - County Jail Blues
TTITLE20=Tiny Grimes Sextette - Tiny's Boogie Woogie
TTITLE21=Joe Turner - I'm In Sharp When I Hit The Coast
TTITLE22=Sonny Thompson - Long Gone Part 1
TTITLE23=Sonny Thompson - Long Gone Part 2
TTITLE24=Memphis Slim - Pacemaker
TTITLE25=Big Bill Broonzy - Wee Wee Hours Blues
EXTD=Disky - DO 247282
EXTT0=
EXTT1=
EXTT2=
EXTT3=
EXTT4=
EXTT5=
EXTT6=
EXTT7=
EXTT8=
EXTT9=
EXTT10=
EXTT11=
EXTT12=
EXTT13=
EXTT14=
EXTT15=
EXTT16=
EXTT17=
EXTT18=
EXTT19=
EXTT20=
EXTT21=
EXTT22=
EXTT23=
EXTT24=
EXTT25=
PLAYORDER=
